<?xml version="1.0" standalone="no"?>
<!DOCTYPE svg PUBLIC "-//W3C//DTD SVG 20010904//EN"
 "http://www.w3.org/TR/2001/REC-SVG-20010904/DTD/svg10.dtd">
<svg version="1.0" xmlns="http://www.w3.org/2000/svg"
 width="460.000000pt" height="494.000000pt" viewBox="0 0 460.000000 494.000000"
 preserveAspectRatio="xMidYMid meet">

<g transform="translate(0.000000,494.000000) scale(0.100000,-0.100000)"
fill="#ffffff" stroke="none">
<path d="M2198 4929 c-302 -44 -564 -225 -728 -500 l-33 -56 -54 24 c-30 13
-98 35 -151 50 -84 23 -117 26 -247 26 -131 0 -162 -3 -249 -26 -394 -106
-666 -421 -726 -842 -42 -297 61 -628 318 -1020 188 -287 268 -437 315 -595
50 -165 52 -190 52 -760 l0 -535 -46 -3 c-85 -5 -84 -1 -87 -336 -2 -160 -1
-301 2 -312 3 -12 18 -27 33 -33 21 -8 466 -11 1700 -9 l1672 3 23 23 c23 22
23 24 23 318 l0 296 -30 24 c-16 13 -42 24 -57 24 l-28 0 0 579 c0 624 2 647
54 800 43 123 124 262 266 456 226 307 302 459 356 715 25 118 25 344 1 460
-66 307 -263 558 -539 684 -127 59 -233 80 -393 81 -127 0 -152 -3 -269 -33
-71 -19 -132 -30 -135 -25 -4 4 -31 40 -59 79 -109 149 -297 300 -461 369
-169 71 -359 98 -523 74z m372 -174 c201 -65 372 -187 500 -359 42 -55 43 -60
26 -70 -142 -83 -260 -191 -324 -298 -45 -76 -52 -121 -22 -153 45 -48 94 -27
138 61 108 215 443 384 761 384 367 -1 669 -233 772 -593 21 -72 24 -103 24
-257 0 -168 -1 -179 -33 -290 -45 -157 -112 -290 -226 -450 -226 -319 -301
-441 -354 -575 -76 -196 -82 -257 -82 -911 l0 -554 -1455 0 -1455 0 0 526 c0
583 -5 656 -62 834 -38 119 -134 314 -223 450 -221 339 -301 488 -353 650 -43
137 -56 230 -49 373 6 157 50 301 127 421 157 243 378 371 665 383 166 7 280
-17 424 -89 90 -44 119 -65 192 -138 51 -50 103 -114 129 -158 52 -88 95 -107
143 -65 49 45 -23 186 -171 332 l-95 93 19 36 c34 64 129 186 182 234 73 65
154 117 244 156 119 51 183 62 338 58 114 -3 148 -8 220 -31z m1300 -4405 l0
-200 -1585 0 -1585 0 0 200 0 200 1585 0 1585 0 0 -200z"/>
<path d="M2771 3187 c-21 -26 -71 -189 -97 -321 -21 -102 -27 -172 -31 -317
-6 -218 3 -341 57 -742 22 -160 43 -326 46 -367 7 -83 16 -100 50 -100 30 0
44 27 44 82 0 42 42 428 76 698 22 169 25 589 6 700 -46 273 -107 420 -151
367z"/>
<path d="M1788 3173 c-18 -21 -59 -122 -82 -203 -62 -215 -62 -526 -1 -1025
31 -254 55 -512 55 -588 0 -69 12 -97 43 -97 40 0 47 18 47 119 0 147 17 343
62 716 47 396 54 610 24 775 -44 251 -98 360 -148 303z"/>
</g>
</svg>
